<svg xmlns="http://www.w3.org/2000/svg" width="16" height="16" fill="none" viewBox="0 0 16 16"><path fill="#212121" d="M12.1782 12.8853L14.1464 14.8536C14.3417 15.0488 14.6583 15.0488 14.8536 14.8536 15.0488 14.6583 15.0488 14.3417 14.8536 14.1464L1.85355 1.14645C1.65829.951184 1.34171.951184 1.14645 1.14645.951184 1.34171.951184 1.65829 1.14645 1.85355L4.83993 5.54704 1.74627 5.99657C1.33616 6.05616 1.17241 6.56015 1.46917 6.84942L4.37187 9.67885 3.68663 13.6741C3.61658 14.0825 4.04529 14.394 4.41211 14.2012L8.00004 12.3149 11.588 14.2012C11.9548 14.394 12.3835 14.0825 12.3134 13.6741L12.1782 12.8853zM14.5309 6.84942L11.7153 9.59396 6.34501 4.22366 7.55167 1.7787C7.73508 1.40708 8.265 1.40708 8.44841 1.7787L10.2424 5.41368 14.2538 5.99657C14.6639 6.05616 14.8277 6.56015 14.5309 6.84942z"/></svg>